<svg id="help" xmlns="http://www.w3.org/2000/svg" width="39.287" height="39.287" viewBox="0 0 39.287 39.287">
  <path id="Path_894" data-name="Path 894" d="M222.722,210.022a12.738,12.738,0,0,0-6.986-11.343,17.322,17.322,0,0,1-17.056,17.056,12.7,12.7,0,0,0,17.8,5.22l6.182,1.71-1.71-6.182A12.654,12.654,0,0,0,222.722,210.022Zm0,0" transform="translate(-183.434 -183.434)" fill="#f8be1a"/>
  <path id="Path_895" data-name="Path 895" d="M30,15A15,15,0,1,0,2.08,22.626L.055,29.947l7.321-2.025A15,15,0,0,0,30,15ZM12.7,11.51H10.4a4.6,4.6,0,1,1,7.711,3.4L16.152,16.7v1.8h-2.3V15.684l2.7-2.475a2.278,2.278,0,0,0,.749-1.7,2.3,2.3,0,1,0-4.6,0Zm1.151,9.285h2.3v2.3h-2.3Zm0,0" fill="#f8be1a"/>
</svg>
